<svg width="900" height="620" viewBox="0 0 900 620" xmlns="http://www.w3.org/2000/svg">
  <defs>
    <linearGradient id="bgGrad" x1="0" y1="0" x2="1" y2="1">
      <stop offset="0%" stop-color="#0a0f1f"/>
      <stop offset="100%" stop-color="#0b1220"/>
    </linearGradient>
  </defs>

  <style>
    .bg { fill:url(#bgGrad); }
    .mono { font-family: "JetBrains Mono","Fira Code","Cascadia Mono",Menlo,Consolas,monospace; font-size:18px; }
    .header { fill:#7dd3fc; font-size:22px; }
    .section { fill:#38bdf8; }
    .label { fill:#f59e0b; }
    .dots { fill:#334155; }
    .val { fill:#e5e7eb; }
    .muted { fill:#94a3b8; font-size:15px; }
    .barbg { fill:#1e293b; }
  </style>

  <rect class="bg" width="1100" height="650"/>

  <!-- HEADER -->
  <text class="mono header" x="40" y="50">bryaanabraham@stats ------------------------------------------</text>

  <!-- LEFT COLUMN -->
  <text class="mono section" x="40" y="100">OS.Profile</text>
  
<text class="mono label" x="40" y="140">Followers</text>
<text class="mono dots" x="220" y="140">......................</text>
<text class="mono val" x="500" y="140">5</text>

<text class="mono label" x="40" y="170">Public Repos</text>
<text class="mono dots" x="220" y="170">......................</text>
<text class="mono val" x="500" y="170">14</text>

<text class="mono label" x="40" y="200">Stars</text>
<text class="mono dots" x="220" y="200">......................</text>
<text class="mono val" x="500" y="200">10</text>

<text class="mono label" x="40" y="230">Forks</text>
<text class="mono dots" x="220" y="230">......................</text>
<text class="mono val" x="500" y="230">5</text>


  <text class="mono section" x="40" y="280">Activity.Stats</text>
  
<text class="mono label" x="40" y="320">Last Year</text>
<text class="mono dots" x="220" y="320">......................</text>
<text class="mono val" x="500" y="320">211</text>

<text class="mono label" x="40" y="350">Current Streak</text>
<text class="mono dots" x="220" y="350">......................</text>
<text class="mono val" x="500" y="350">3</text>

<text class="mono label" x="40" y="380">Longest Streak</text>
<text class="mono dots" x="220" y="380">......................</text>
<text class="mono val" x="500" y="380">5</text>

<text class="mono label" x="40" y="410">Avg / Day</text>
<text class="mono dots" x="220" y="410">......................</text>
<text class="mono val" x="500" y="410">0.57</text>


  <text class="mono section" x="40" y="460">Languages.Usage</text>
  
<text class="mono label" x="40" y="500">Jupyter Notebook</text>
<rect class="barbg" x="220" y="488" width="260" height="12" rx="6"/>
<rect fill="#60a5fa" x="220" y="488" width="133" height="12" rx="6"/>
<text class="mono val" x="500" y="500">51.4%</text>


<text class="mono label" x="40" y="530">Python</text>
<rect class="barbg" x="220" y="518" width="260" height="12" rx="6"/>
<rect fill="#4ade80" x="220" y="518" width="120" height="12" rx="6"/>
<text class="mono val" x="500" y="530">46.3%</text>


<text class="mono label" x="40" y="560">Cython</text>
<rect class="barbg" x="220" y="548" width="260" height="12" rx="6"/>
<rect fill="#a78bfa" x="220" y="548" width="4" height="12" rx="6"/>
<text class="mono val" x="500" y="560">1.6%</text>


  <!-- RIGHT COLUMN -->
  <text class="mono section" x="620" y="100">Top.Repositories</text>
  
<text class="mono label" x="620" y="135">EcoCode</text>
<text class="mono muted" x="620" y="155">Dart</text>
<text class="mono val" x="620" y="175">★ 3   ⑂ 2</text>


<text class="mono label" x="620" y="210">AutoPark-CV</text>
<text class="mono muted" x="620" y="230">Python</text>
<text class="mono val" x="620" y="250">★ 1   ⑂ 0</text>


<text class="mono label" x="620" y="285">bryaanabraham</text>
<text class="mono muted" x="620" y="305">Python</text>
<text class="mono val" x="620" y="325">★ 1   ⑂ 1</text>


<text class="mono label" x="620" y="360">Crons-AI</text>
<text class="mono muted" x="620" y="380">TypeScript</text>
<text class="mono val" x="620" y="400">★ 1   ⑂ 0</text>


<text class="mono label" x="620" y="435">Pi-FallGuard</text>
<text class="mono muted" x="620" y="455">Python</text>
<text class="mono val" x="620" y="475">★ 1   ⑂ 0</text>


</svg>
