<svg width="1100" height="650" viewBox="0 0 1100 650" xmlns="http://www.w3.org/2000/svg">
  <defs>
    <linearGradient id="bgGrad" x1="0" y1="0" x2="1" y2="1">
      <stop offset="0%" stop-color="#0a0f1f"/>
      <stop offset="100%" stop-color="#0b1220"/>
    </linearGradient>
  </defs>

  <style>
    .bg { fill:url(#bgGrad); }
    .mono { font-family: "JetBrains Mono","Fira Code","Cascadia Mono",Menlo,Consolas,monospace; font-size:18px; }
    .header { fill:#7dd3fc; font-size:22px; }
    .section { fill:#38bdf8; }
    .label { fill:#f59e0b; }
    .dots { fill:#334155; }
    .val { fill:#e5e7eb; }
    .muted { fill:#94a3b8; font-size:15px; }
    .barbg { fill:#1e293b; }
  </style>

  <rect class="bg" width="1100" height="650"/>

  <!-- HEADER -->
  <text class="mono header" x="40" y="50">bryaanabraham@readme ----------------------------------------------------</text>

  <!-- LEFT COLUMN -->
  <text class="mono section" x="40" y="100">OS.Profile</text>
  {{PROFILE_BLOCK}}

  <text class="mono section" x="40" y="250">Activity.Stats</text>
  
<text class="mono label" x="40" y="290">Last Year</text>
<text class="mono dots" x="220" y="290">......................</text>
<text class="mono val" x="500" y="290">186</text>

<text class="mono label" x="40" y="320">Current Streak</text>
<text class="mono dots" x="220" y="320">......................</text>
<text class="mono val" x="500" y="320">1</text>

<text class="mono label" x="40" y="350">Longest Streak</text>
<text class="mono dots" x="220" y="350">......................</text>
<text class="mono val" x="500" y="350">5</text>

<text class="mono label" x="40" y="380">Avg / Day</text>
<text class="mono dots" x="220" y="380">......................</text>
<text class="mono val" x="500" y="380">0.51</text>


  <text class="mono section" x="40" y="400">Languages.Usage</text>
  
<text class="mono label" x="40" y="440">Jupyter Notebook</text>
<rect class="barbg" x="220" y="428" width="260" height="12" rx="6"/>
<rect fill="#60a5fa" x="220" y="428" width="133" height="12" rx="6"/>
<text class="mono val" x="500" y="440">51.5%</text>


<text class="mono label" x="40" y="480">Python</text>
<rect class="barbg" x="220" y="468" width="260" height="12" rx="6"/>
<rect fill="#4ade80" x="220" y="468" width="120" height="12" rx="6"/>
<text class="mono val" x="500" y="480">46.3%</text>


<text class="mono label" x="40" y="520">Cython</text>
<rect class="barbg" x="220" y="508" width="260" height="12" rx="6"/>
<rect fill="#a78bfa" x="220" y="508" width="4" height="12" rx="6"/>
<text class="mono val" x="500" y="520">1.6%</text>


  <!-- RIGHT COLUMN -->
  <text class="mono section" x="620" y="100">Top.Repositories</text>
  
<text class="mono label" x="620" y="140">EcoCode</text>
<text class="mono muted" x="620" y="160">Dart</text>
<text class="mono val" x="620" y="180">★ 3   ⑂ 2</text>


<text class="mono label" x="620" y="220">AutoPark-CV</text>
<text class="mono muted" x="620" y="240">Python</text>
<text class="mono val" x="620" y="260">★ 1   ⑂ 0</text>


<text class="mono label" x="620" y="300">WanderGuard</text>
<text class="mono muted" x="620" y="320">Python</text>
<text class="mono val" x="620" y="340">★ 1   ⑂ 0</text>


<text class="mono label" x="620" y="380">BackDropAI</text>
<text class="mono muted" x="620" y="400">Jupyter Notebook</text>
<text class="mono val" x="620" y="420">★ 0   ⑂ 0</text>


<text class="mono label" x="620" y="460">BeyondThePixels</text>
<text class="mono muted" x="620" y="480">Jupyter Notebook</text>
<text class="mono val" x="620" y="500">★ 0   ⑂ 0</text>


</svg>
