<svg width="900" height="600" viewBox="0 0 900 600" xmlns="http://www.w3.org/2000/svg">
  <style>
    .bg { fill:#0b1220; }
    .card { fill:#0f172a; stroke:#1e293b; stroke-width:1; rx:12; }
    .mono { font-family: "JetBrains Mono","Fira Code","Cascadia Mono",Menlo,Consolas,monospace; font-size:15px; }
    .header { fill:#93c5fd; font-size:20px; }
    .label { fill:#f59e0b; }
    .val { fill:#e5e7eb; }
    .muted { fill:#94a3b8; font-size:13px; }
    .barbg { fill:#1e293b; }
    .barpy { fill:#4ade80; }
    .barnb { fill:#60a5fa; }
    .barcy { fill:#a78bfa; }
  </style>

  <rect class="bg" width="900" height="600"/>

  <!-- HEADER -->
  <text class="mono header" x="30" y="45">bryaanabraham@github — profile snapshot</text>
  <text class="mono muted" x="30" y="70">Generated: 2026-01-28</text>

  <!-- PROFILE CARD -->
  <rect class="card" x="30" y="100" width="400" height="200" rx="12"/>
  <text class="mono label" x="50" y="130">Profile Stats</text>
  
<text class="mono label" x="50" y="160">Followers</text>
<text class="mono val" x="250" y="160">5</text>

<text class="mono label" x="50" y="185">Public Repos</text>
<text class="mono val" x="250" y="185">14</text>

<text class="mono label" x="50" y="210">Stars</text>
<text class="mono val" x="250" y="210">5</text>

<text class="mono label" x="50" y="235">Forks</text>
<text class="mono val" x="250" y="235">2</text>


  <!-- CONTRIBUTIONS CARD -->
  <rect class="card" x="470" y="100" width="400" height="200" rx="12"/>
  <text class="mono label" x="490" y="130">Contributions</text>
  
<text class="mono label" x="490" y="160">Last Year</text>
<text class="mono val" x="690" y="160">182</text>

<text class="mono label" x="490" y="185">Current Streak</text>
<text class="mono val" x="690" y="185">1</text>

<text class="mono label" x="490" y="210">Longest Streak</text>
<text class="mono val" x="690" y="210">5</text>

<text class="mono label" x="490" y="235">Avg / Day</text>
<text class="mono val" x="690" y="235">0.49</text>


  <!-- LANGUAGES CARD -->
  <rect class="card" x="30" y="330" width="400" height="230" rx="12"/>
  <text class="mono label" x="50" y="360">Language Usage</text>
  
<text class="mono val" x="50" y="390">Jupyter Notebook</text>
<rect class="barbg" x="50" y="398" width="300" height="12" rx="6"/>
<rect fill="#60a5fa" x="50" y="398" width="128" height="12" rx="6"/>
<text class="mono muted" x="360" y="408">51.5%</text>


<text class="mono val" x="50" y="425">Python</text>
<rect class="barbg" x="50" y="433" width="300" height="12" rx="6"/>
<rect fill="#4ade80" x="50" y="433" width="115" height="12" rx="6"/>
<text class="mono muted" x="360" y="443">46.3%</text>


<text class="mono val" x="50" y="460">Cython</text>
<rect class="barbg" x="50" y="468" width="300" height="12" rx="6"/>
<rect fill="#a78bfa" x="50" y="468" width="4" height="12" rx="6"/>
<text class="mono muted" x="360" y="478">1.6%</text>


  <!-- REPOS CARD -->
  <rect class="card" x="470" y="330" width="400" height="230" rx="12"/>
  <text class="mono label" x="490" y="360">Top Repositories</text>
  
<text class="mono val" x="490" y="390">EcoCode</text>
<text class="mono muted" x="490" y="408">Dart</text>
<text class="mono val" x="490" y="426">★ 3   ⑂ 2</text>


<text class="mono val" x="490" y="445">AutoPark-CV</text>
<text class="mono muted" x="490" y="463">Python</text>
<text class="mono val" x="490" y="481">★ 1   ⑂ 0</text>


<text class="mono val" x="490" y="500">WanderGuard</text>
<text class="mono muted" x="490" y="518">Python</text>
<text class="mono val" x="490" y="536">★ 1   ⑂ 0</text>


<text class="mono val" x="490" y="555">BackDropAI</text>
<text class="mono muted" x="490" y="573">Jupyter Notebook</text>
<text class="mono val" x="490" y="591">★ 0   ⑂ 0</text>


</svg>
