<svg width="1300" height="470" viewBox="0 0 1300 470" xmlns="http://www.w3.org/2000/svg">
  <style>
    .bg { fill:#0b1220; }
    .mono { font-family: "JetBrains Mono","Fira Code","Cascadia Mono",Menlo,Consolas,monospace; font-size:16px; }
    .header { fill:#93c5fd; font-size:20px; }
    .label { fill:#f59e0b; }
    .dots  { fill:#334155; }
    .val   { fill:#e5e7eb; }
    .muted { fill:#94a3b8; font-size:14px; }
    .barbg { fill:#1e293b; }
    .barpy { fill:#4ade80; }
    .barnb { fill:#60a5fa; }
    .barcy { fill:#a78bfa; }
  </style>

  <rect class="bg" width="1300" height="470"/>

  <!-- HEADER -->
  <text class="mono header" x="40" y="45">bryaanabraham@github — profile snapshot</text>
  <text class="mono muted" x="40" y="70">Generated: 2026-01-28</text>

  <!-- PROFILE STATS PANEL -->
  <g transform="translate(40,110)">
    <text class="mono label" x="0" y="0">Profile Stats</text>

    <text class="mono label" x="0" y="40">Followers</text>
    <text class="mono dots"  x="150" y="40">.......................</text>
    <text class="mono val"   x="360" y="40">5</text>

    <text class="mono label" x="0" y="70">Public Repos</text>
    <text class="mono dots"  x="150" y="70">.......................</text>
    <text class="mono val"   x="360" y="70">14</text>

    <text class="mono label" x="0" y="100">Total Stars</text>
    <text class="mono dots"  x="150" y="100">.......................</text>
    <text class="mono val"   x="360" y="100">5</text>

    <text class="mono label" x="0" y="130">Total Forks</text>
    <text class="mono dots"  x="150" y="130">.......................</text>
    <text class="mono val"   x="360" y="130">2</text>

    <text class="mono label" x="0" y="160">Contributions (1y)</text>
    <text class="mono dots"  x="150" y="160">.......................</text>
    <text class="mono val"   x="360" y="160">155</text>
  </g>

  <!-- LANGUAGE USAGE BARS -->
  <g transform="translate(500,110)">
    <text class="mono label" x="0" y="0">Language Usage</text>

    <!-- Jupyter Notebook 51.45% -->
    <text class="mono val" x="0" y="40">Jupyter Notebook</text>
    <rect class="barbg" x="0" y="50" width="420" height="14" rx="7"/>
    <rect class="barnb" x="0" y="50" width="216" height="14" rx="7"/>
    <text class="mono muted" x="430" y="62">51.45%</text>

    <!-- Python 46.33% -->
    <text class="mono val" x="0" y="90">Python</text>
    <rect class="barbg" x="0" y="100" width="420" height="14" rx="7"/>
    <rect class="barpy" x="0" y="100" width="195" height="14" rx="7"/>
    <text class="mono muted" x="430" y="112">46.33%</text>

    <!-- Cython 1.6% -->
    <text class="mono val" x="0" y="140">Cython</text>
    <rect class="barbg" x="0" y="150" width="420" height="14" rx="7"/>
    <rect class="barcy" x="0" y="150" width="7" height="14" rx="7"/>
    <text class="mono muted" x="430" y="162">1.6%</text>

    <!-- Others -->
    <text class="mono val" x="0" y="190">Other (C, C++, Dart, JS…)</text>
    <rect class="barbg" x="0" y="200" width="420" height="14" rx="7"/>
    <rect fill="#64748b" x="0" y="200" width="3" height="14" rx="7"/>
    <text class="mono muted" x="430" y="212">&lt;1%</text>
  </g>

  <!-- TOP REPOSITORIES -->
  <g transform="translate(980,110)">
    <text class="mono label" x="0" y="0">Top Repositories</text>

    <text class="mono val" x="0" y="40">EcoCode</text>
    <text class="mono muted" x="0" y="60">Dart</text>
    <text class="mono val" x="0" y="80">★ 3   ⑂ 2</text>

    <text class="mono val" x="0" y="120">AutoPark-CV</text>
    <text class="mono muted" x="0" y="140">Python</text>
    <text class="mono val" x="0" y="160">★ 1   ⑂ 0</text>

    <text class="mono val" x="0" y="200">WanderGuard</text>
    <text class="mono muted" x="0" y="220">Python</text>
    <text class="mono val" x="0" y="240">★ 1   ⑂ 0</text>

    <text class="mono val" x="0" y="280">BackDropAI</text>
    <text class="mono muted" x="0" y="300">Jupyter Notebook</text>
    <text class="mono val" x="0" y="320">★ 0   ⑂ 0</text>

    <text class="mono val" x="0" y="360">BeyondThePixels</text>
    <text class="mono muted" x="0" y="380">Jupyter Notebook</text>
    <text class="mono val" x="0" y="400">★ 0   ⑂ 0</text>
  </g>

</svg>
